<?xml version="1.0" encoding="UTF-8"?><svg id="Capa_2" xmlns="http://www.w3.org/2000/svg" viewBox="0 0 856.5 856.5"><defs><style>.cls-1{fill:#dcf343;}.cls-2{fill:#4949e9;}</style></defs><g id="Capa_1-2"><g><g><path class="cls-2" d="m475.55,344.27c.51.27,1.02.46,1.55.71.11-.55.15-1.15.15-1.7-.6.31-1.11.64-1.7,1Zm-84.53.55c-.6.2-1.15.46-1.75.8.64.31,1.35.66,1.99,1.02-.09-.6-.2-1.22-.24-1.81Zm84.53-.55c.51.27,1.02.46,1.55.71.11-.55.15-1.15.15-1.7-.6.31-1.11.64-1.7,1Z"/><path class="cls-2" d="m477.25,343.27c0,.55-.04,1.15-.15,1.7-.53-.24-1.04-.44-1.55-.71.6-.35,1.11-.69,1.7-1Z"/><path class="cls-2" d="m391.26,346.64c-.64-.35-1.35-.71-1.99-1.02.6-.33,1.15-.6,1.75-.8.04.6.15,1.22.24,1.81Z"/><path class="cls-2" d="m477.25,343.27c0,.55-.04,1.15-.15,1.7-.53-.24-1.04-.44-1.55-.71.6-.35,1.11-.69,1.7-1Z"/><path class="cls-2" d="m391.26,346.64c-.64-.35-1.35-.71-1.99-1.02.6-.33,1.15-.6,1.75-.8.04.6.15,1.22.24,1.81Z"/><path class="cls-2" d="m391.02,344.82c-.6.2-1.15.46-1.75.8.64.31,1.35.66,1.99,1.02-.09-.6-.2-1.22-.24-1.81Z"/><path class="cls-2" d="m731.02,125.41c-167.21-167.21-438.38-167.21-605.62,0-167.21,167.28-167.21,438.41,0,605.66l.02.02c167.24,167.21,438.36,167.2,605.59-.02h0c83.62-83.67,125.47-193.25,125.47-302.83s-41.86-219.17-125.47-302.83Z"/></g><path class="cls-1" d="m278.21,307.54l84.39-84.34c-12.58-15.18-19.89-29.77-22.1-44.2-3.11-20.95,4.41-40.69,22.35-58.63,6.16-6.21,16.19-6.21,22.35,0,6.16,6.16,6.16,16.14,0,22.35-14.18,14.13-14.43,24.81-13.43,31.57,1.2,8.02,5.76,16.99,13.53,26.76,28.56-23.25,69.96-22.65,97.92,1.55,22-27.91,13.18-44.35-.35-57.83-6.16-6.16-6.16-16.19,0-22.35,6.16-6.16,16.19-6.16,22.35,0,21.75,21.75,37.94,56.53.55,102.33l78.08,78.08c-33.98,5.06-69.56,18.54-106.54,40.44.95-12.53-3.91-26.16-11.23-39.94l-11.33-19.59c-9.72-16.79-34.18-16.14-43,1.15l-9.42,18.44c-6.92,14.93-11.48,27.11-11.48,37.99,0,1.15.05,2.31.15,3.46v.05c.05.6.15,1.2.25,1.8-.65-.35-1.35-.7-2.01-1h-.05c-35.53-17.99-74.47-29.72-114.61-34.38,1.2-1.25,2.41-2.51,3.61-3.71Z"/><path class="cls-1" d="m588.56,617.89c-28.31,28.31-62.44,47.26-98.52,56.88l-47.11-213.58c-.9-4.16-4.61-7.12-8.87-7.12s-7.97,2.96-8.87,7.12l-47.11,213.93c-36.58-9.52-71.21-28.56-99.87-57.23-74.62-74.62-84.24-189.63-28.92-274.67,63.44,2.96,125.13,25.51,173.49,63.99l10.47,8.37,10.57-8.22c61.09-47.61,117.31-72.01,167.73-72.81,27.51,38.19,41.29,83.19,41.29,128.19,0,56.13-21.45,112.3-64.3,155.15Z"/></g></g></svg>