<?xml version="1.0" encoding="UTF-8"?><svg id="Capa_2" xmlns="http://www.w3.org/2000/svg" viewBox="0 0 1379.22 856.28"><defs><style>.cls-1{fill:#dcf343;}.cls-2{fill:#4949e9;}</style></defs><g id="Capa_1-2"><g><g><g><path class="cls-2" d="m726.86,195.19c.29.15.58.26.88.4.06-.31.09-.65.09-.97-.34.18-.63.36-.97.56Zm-47.93.31c-.34.11-.65.26-.99.45.36.18.76.38,1.13.58-.05-.34-.11-.69-.14-1.03Zm47.93-.31c.29.15.58.26.88.4.06-.31.09-.65.09-.97-.34.18-.63.36-.97.56Z"/><path class="cls-2" d="m727.82,194.63c0,.31-.02.65-.09.97-.3-.14-.59-.25-.88-.4.34-.2.63-.39.97-.56Z"/><path class="cls-2" d="m679.07,196.53c-.36-.2-.76-.4-1.13-.58.34-.19.65-.34.99-.45.03.34.09.69.14,1.03Z"/><path class="cls-2" d="m727.82,194.63c0,.31-.02.65-.09.97-.3-.14-.59-.25-.88-.4.34-.2.63-.39.97-.56Z"/><path class="cls-2" d="m679.07,196.53c-.36-.2-.76-.4-1.13-.58.34-.19.65-.34.99-.45.03.34.09.69.14,1.03Z"/><path class="cls-2" d="m678.93,195.51c-.34.11-.65.26-.99.45.36.18.76.38,1.13.58-.05-.34-.11-.69-.14-1.03Z"/><path class="cls-2" d="m871.71,71.1c-94.8-94.8-248.55-94.8-343.37,0-94.8,94.85-94.8,248.57,0,343.4h.01c94.82,94.82,248.54,94.81,343.36,0h0c47.41-47.44,71.14-109.57,71.14-171.7s-23.73-124.26-71.14-171.7Z"/></g><path class="cls-1" d="m614.97,174.37l47.85-47.82c-7.13-8.61-11.28-16.88-12.53-25.06-1.76-11.88,2.5-23.07,12.67-33.24,3.5-3.52,9.18-3.52,12.67,0,3.49,3.49,3.49,9.15,0,12.67-8.04,8.01-8.18,14.06-7.61,17.9.68,4.55,3.27,9.63,7.67,15.17,16.2-13.18,39.66-12.84,55.52.88,12.47-15.83,7.47-25.15-.2-32.79-3.49-3.49-3.49-9.18,0-12.67,3.49-3.49,9.18-3.49,12.67,0,12.33,12.33,21.51,32.05.31,58.02l44.27,44.27c-19.26,2.87-39.44,10.51-60.41,22.93.54-7.1-2.22-14.83-6.36-22.65l-6.42-11.11c-5.51-9.52-19.38-9.15-24.38.65l-5.34,10.46c-3.92,8.47-6.51,15.37-6.51,21.54,0,.65.03,1.31.09,1.96v.03c.03.34.09.68.14,1.02-.37-.2-.77-.4-1.14-.57h-.03c-20.14-10.2-42.22-16.85-64.98-19.49.68-.71,1.36-1.42,2.05-2.1Z"/><path class="cls-1" d="m790.93,350.33c-16.05,16.05-35.4,26.79-55.86,32.25l-26.71-121.1c-.51-2.36-2.61-4.03-5.03-4.03s-4.52,1.68-5.03,4.03l-26.71,121.29c-20.74-5.4-40.37-16.2-56.63-32.45-42.31-42.31-47.76-107.51-16.39-155.73,35.97,1.68,70.95,14.46,98.37,36.28l5.94,4.74,6-4.66c34.63-26.99,66.51-40.83,95.1-41.28,15.6,21.65,23.41,47.17,23.41,72.68,0,31.82-12.16,63.67-36.45,87.97Z"/></g><g><path class="cls-2" d="m0,603.91h91.99c61.03,0,99.3,29.3,99.3,91.42s-38.27,90.36-99.3,90.36h-37.23v65.3H0v-247.08Zm136.53,91.42c0-28.24-14.52-39.88-44.54-39.88h-37.23v78.36h37.23c29.69,0,44.54-12.36,44.54-38.47Z"/><path class="cls-2" d="m285.42,856.28c-58.72,0-89.73-40.59-89.73-87.18s30.68-88.24,89.73-88.24,89.73,39.89,89.73,88.24-31.01,87.18-89.73,87.18Zm37.94-87.54c0-22.94-11.87-42-37.94-42s-37.94,18.71-37.94,42,13.53,42,37.94,42,37.94-18,37.94-42Z"/><path class="cls-2" d="m568.93,856.28c-58.72,0-89.73-40.59-89.73-87.18s30.68-88.24,89.73-88.24,89.73,39.89,89.73,88.24-31.01,87.18-89.73,87.18Zm37.93-87.54c0-22.94-11.87-42-37.93-42s-37.94,18.71-37.94,42,13.53,42,37.94,42,37.93-18,37.93-42Z"/><path class="cls-2" d="m812.21,670.14c-16.35,0-27.16-10.62-27.16-26.56s10.81-27.18,27.16-27.18,27.45,10.94,27.45,27.18-11.1,26.56-27.45,26.56Zm-26.08,15.66h51.79v165.19h-51.79v-165.19Z"/><path class="cls-2" d="m1111.7,856.28c-58.72,0-89.73-40.59-89.73-87.18s30.68-88.24,89.73-88.24,89.73,39.89,89.73,88.24-31.01,87.18-89.73,87.18Zm37.94-87.54c0-22.94-11.87-42-37.94-42s-37.93,18.71-37.93,42,13.53,42,37.93,42,37.94-18,37.94-42Z"/><path class="cls-2" d="m1309.61,725.33c-18.48,0-26.39,5.3-26.39,13.77,0,10.94,14.51,12,32,14.83,27.71,4.94,64,12,64,49.06,0,30.71-25.07,53.3-77.52,53.3-56.08,0-81.48-21.89-81.48-21.89l15.18-37.77s22.76,17.65,62.68,17.65c14.84,0,23.75-4.59,23.75-12.36,0-11.65-15.83-12.35-34.97-15.53-27.05-5.3-61.03-13.06-61.03-51.18,0-25.77,21.44-54.36,79.83-54.36,42.89,0,67.63,12.71,67.63,12.71l-10.88,45.18s-18.14-13.41-52.78-13.41Z"/><path class="cls-2" d="m736.57,797.33v-193.43l-51.79,14.12v235.08h41.89c3.45,0,6.75-.19,9.9-.52v-55.25Z"/><path class="cls-2" d="m453.07,797.33v-193.43l-51.8,14.12v235.08h41.9c3.45,0,6.75-.19,9.9-.52v-55.25Z"/><path class="cls-2" d="m991.72,797.33s-11.87,8.82-31.34,8.82c-15.5,0-21.44-6.71-21.44-23.29v-50.48h54.43v-46.94h-54.43v-81.54l-51.46,14.12v174.72c0,45.53,24.41,63.54,62.35,63.54,34.31,0,55.42-14.12,55.42-14.12l-13.53-44.83Z"/></g></g></g></svg>