<?xml version="1.0" encoding="UTF-8"?><svg id="Capa_2" xmlns="http://www.w3.org/2000/svg" viewBox="0 0 446.49 430.43"><defs><style>.cls-1{fill:#4949e9;}</style></defs><g id="Capa_1-2"><path class="cls-1" d="m443.76,143.08l-44.55-13.92c-1.28-4.88-4.81-15.88-11.53-20.7-.21-.15-.43-.28-.67-.38-11.55-5.2-22.52-12.91-26.43-15.78v-28.19c0-1.66-1.05-3.14-2.62-3.68-1.57-.54-3.31-.03-4.33,1.28l-22.38,28.54-49.69,51.18L109.37.88c-1.67-1.36-4.12-1.11-5.48.55-1.36,1.66-1.11,4.12.55,5.48l171.65,140.13-4.73,4.87c-2.88,2.24-44.19,33.26-104.43,19.87-63.34-14.07-83.11-22.54-83.3-22.63-1.97-.86-4.26.03-5.13,2-.86,1.97.03,4.26,2,5.13.8.35,20.37,8.79,84.74,23.1,65.81,14.63,109.38-20.08,111.2-21.56.12-.1.23-.2.33-.31l5.37-5.53,69.71,56.91c-5.23,22.74-12.95,55.61-14.16,58.96-3.7,10.17-26.91,29.14-35.55,35.59-.63.48-1.11,1.13-1.36,1.89-.21.62-20.6,61.78-22.96,68.37-3.04,8.51-2.22,17.43,10.93,37.89.41.65,1.01,1.16,1.72,1.46,9.99,4.34,13.14,7.84,14.13,9.6h-32.77l-19.39-35.24v-76.71c0-1.09-.46-2.13-1.26-2.87-.8-.74-1.88-1.1-2.96-1.01-30.3,2.57-90.86-2.22-124.3-25.97-1.09-.78-2.5-.93-3.73-.43s-2.12,1.61-2.36,2.92c-7.75,43.76-57.65,77.55-58.15,77.89-1.34.9-1.99,2.53-1.63,4.1l8.62,37.83c.21.94.76,1.76,1.55,2.32.23.17,5.86,4.13,14.43,9.4.36.23.98.66.99,1.04.06,1.5-2.53,4.57-5.19,6.73h-29.78l-26.13-55.26c3.97-8.65,18.22-41.96,9.38-57.22-54.69-86.6-.62-124.21,1.7-125.76.95-.63,1.58-1.64,1.72-2.77.14-1.13-.23-2.27-1-3.11-9.3-10.11-14.42-23.24-14.42-36.99,0-30.13,24.51-54.65,54.65-54.65,22.58,0,43.12,14.18,51.12,35.29.76,2.01,3.01,3.02,5.02,2.26,2.01-.76,3.02-3.01,2.26-5.02-9.13-24.12-32.61-40.32-58.4-40.32-34.43,0-62.43,28.01-62.43,62.44,0,14.31,4.86,28.04,13.76,39.1-12.35,10.75-51.16,53.57-.63,133.56,6.36,10.98-5.45,40.91-10.53,51.51-.51,1.06-.51,2.29,0,3.35l27.97,59.14c.64,1.36,2.01,2.23,3.52,2.23h33.57c.82,0,1.61-.26,2.27-.73,1.61-1.16,9.62-7.28,9.37-14.06-.08-2.1-.95-5.09-4.7-7.39-6.08-3.75-10.72-6.86-12.81-8.29l-7.7-33.8c9.79-7,48.09-36.49,58.05-75.75,34.21,21.17,89.34,26.26,120.39,24.46v73.54c0,.66.17,1.3.48,1.88l20.98,38.13c.68,1.24,1.99,2.02,3.41,2.02h38.78c1.21,0,2.35-.56,3.09-1.52.38-.49,2.22-3.16,1.16-7.23-1.43-5.51-7.28-10.52-17.88-15.28-11.95-18.84-11.26-25.19-9.52-30.08,2.23-6.24,19.72-58.65,22.63-67.38,6.15-4.67,32.4-25.17,37.22-38.43,1.53-4.21,10.05-40.85,13.57-56.12l4.72,3.86c.72.59,1.59.88,2.46.88,1.13,0,2.25-.49,3.02-1.43,1.36-1.66,1.11-4.12-.55-5.48l-6.26-5.11,23.24-23.53c6.17-.38,29.35-1.86,40.27-3.56,14.63-2.29,20.33-29.37,20.94-32.45.38-1.95-.76-3.87-2.66-4.46Zm-19.48,29.22c-12.03,1.88-40.73,3.56-41.02,3.58-.96.06-1.87.46-2.54,1.15l-24.81,25.12-68.32-55.77,49.37-50.85c.1-.1.18-.2.27-.31l15.55-19.83v18.87c0,1.21.56,2.34,1.51,3.08.57.44,14.06,10.82,29.12,17.67,4.79,3.74,7.91,14.23,8.72,18.03.29,1.38,1.31,2.49,2.65,2.91l43.22,13.51c-2.24,8.69-7.35,21.87-13.72,22.86Z"/></g></svg>