<?xml version="1.0" encoding="UTF-8"?><svg id="Capa_2" xmlns="http://www.w3.org/2000/svg" viewBox="0 0 445.34 441.55"><defs><style>.cls-1{fill:#4949e9;}</style></defs><g id="Capa_1-2"><g><path class="cls-1" d="m444.2,82.24l-17.26-17.26c-.73-.73-1.72-1.14-2.75-1.14h-52.7v-14.3c0-1.06-.43-2.08-1.2-2.81l-26.46-25.31c-.72-.69-1.69-1.08-2.69-1.08h-39.27v-.56c0-10.91-8.87-19.78-19.78-19.78H44.64C19.61,0,0,37.33,0,84.99c0,23.23,4.72,44.86,13.29,60.91.22.4.45.86.7,1.36,3.46,6.8,11.57,22.72,35.04,22.72h11.42v130.7c0,11.85-9.64,21.5-21.5,21.5h-3.09c-14.41,0-26.14,11.73-26.14,26.14v67.09c0,14.41,11.72,26.14,26.14,26.14h156.1c14.41,0,26.14-11.73,26.14-26.14v-67.09c0-14.41-11.72-26.14-26.14-26.14h-19.82c-11.85,0-21.5-9.64-21.5-21.5v-55.67c2.47-.59,4.89-1.15,7.18-1.67,16.24-3.68,30.26-6.86,30.26-21.47v-51.89h93.98c10.91,0,19.78-8.88,19.78-19.79v-.55h39.27c1,0,1.97-.39,2.69-1.08l26.46-25.31c.77-.73,1.2-1.75,1.2-2.81v-14.3h52.7c1.03,0,2.02-.41,2.75-1.14l17.26-17.26c1.52-1.52,1.52-3.98,0-5.5Zm-233.88,266.08v29.65h-125.73c-2.15,0-3.89,1.74-3.89,3.89s1.74,3.89,3.89,3.89h125.73v29.65c0,10.12-8.23,18.35-18.35,18.35H35.87c-10.12,0-18.35-8.23-18.35-18.35v-67.09c0-10.12,8.23-18.35,18.35-18.35h156.1c10.12,0,18.35,8.23,18.35,18.35Zm-57.99-26.14H58.77c5.8-5.35,9.47-13,9.47-21.5v-130.7h74.62v130.7c0,8.5,3.66,16.14,9.47,21.5Zm27.97-100.31c0,7.67-6.64,9.89-24.2,13.87-1.76.4-3.59.82-5.46,1.26v-67.02h29.65v51.89Zm113.76-71.67c0,6.62-5.38,12-12,12H49.04c-18.7,0-24.82-12.01-28.1-18.47-.28-.55-.54-1.05-.77-1.5-7.86-14.72-12.38-35.59-12.38-57.24C7.79,43.14,24.66,7.79,44.64,7.79h177.15v114.73c0,2.15,1.74,3.89,3.89,3.89s3.89-1.74,3.89-3.89V7.79h52.48c6.62,0,12,5.38,12,12v130.42Zm69.63-31.42l-24.13,23.08h-37.71V28.12h37.71l24.13,23.08v67.57Zm58.88-20.42h-51.09v-26.73h51.09l13.37,13.37-13.37,13.37Z"/><path class="cls-1" d="m141.19,59.7H61.85c-2.15,0-3.89,1.74-3.89,3.89s1.74,3.89,3.89,3.89h79.34c2.15,0,3.89-1.74,3.89-3.89s-1.74-3.89-3.89-3.89Z"/><path class="cls-1" d="m141.19,102.5H61.85c-2.15,0-3.89,1.74-3.89,3.89s1.74,3.89,3.89,3.89h79.34c2.15,0,3.89-1.74,3.89-3.89s-1.74-3.89-3.89-3.89Z"/></g></g></svg>