<?xml version="1.0" encoding="UTF-8"?><svg id="Capa_2" xmlns="http://www.w3.org/2000/svg" viewBox="0 0 431.02 430.42"><defs><style>.cls-1{fill:#4949e9;}</style></defs><g id="Capa_1-2"><g><path class="cls-1" d="m393.1,238.5c-.16-2.03-1.85-3.59-3.88-3.59h-21.02c2.17-12.87,3.11-25.8,2.5-38.56-.69-14.32-5.41-56.78-36.26-81.96l44.61,9.62,44.78,71.47c.74,1.18,2.01,1.83,3.3,1.83.71,0,1.42-.19,2.06-.59,1.82-1.14,2.37-3.54,1.23-5.37l-45.65-72.86c-.56-.89-1.45-1.52-2.48-1.74l-60.68-13.08c9.99-7.17,26.11-21.43,30.91-41.36,3.6-14.96.14-30.25-10.29-45.45-1.21-1.77-3.64-2.22-5.41-1.01-1.77,1.22-2.22,3.64-1.01,5.41,9.12,13.29,12.2,26.47,9.15,39.18-4.76,19.83-23.18,33.86-31.32,39.22-4.9-12.96-20.49-48.66-45.16-55.27-1.01-24.63-21.31-44.38-46.19-44.38s-45.18,19.74-46.19,44.38c-24.68,6.61-40.26,42.31-45.16,55.27-8.14-5.36-26.56-19.39-31.32-39.22-3.05-12.71.03-25.89,9.15-39.18,1.22-1.77.77-4.2-1.01-5.41-1.77-1.22-4.19-.76-5.41,1.01-10.43,15.2-13.89,30.48-10.29,45.44,4.8,19.94,20.92,34.19,30.91,41.36l-60.68,13.08c-1.03.22-1.92.85-2.48,1.74L14.17,191.34c-1.14,1.82-.59,4.22,1.23,5.37.64.4,1.36.59,2.06.59,1.3,0,2.56-.65,3.3-1.83l44.78-71.47,44.61-9.62c-30.85,25.18-35.58,67.64-36.26,81.96-.35,7.21-.2,14.72.43,22.33.18,2.14,2.08,3.73,4.2,3.56,2.14-.18,3.73-2.06,3.56-4.2-.61-7.27-.75-14.44-.41-21.31.76-15.88,6.76-68.93,52.08-87.35h84.66v299.26c-8.68-.79-18.23-4.15-28.47-10.04-1.86-1.07-4.24-.43-5.31,1.43-1.07,1.86-.43,4.24,1.43,5.32,12.98,7.47,25.18,11.25,36.24,11.25,22.03,0,48.49-15.04,74.53-42.35,29.98-31.45,59.32-80.56,69.9-131.56h18.97c1.55,13.64,8.9,62.9,37.75,106.84.75,1.14,1.99,1.76,3.26,1.76.73,0,1.47-.21,2.13-.64,1.8-1.18,2.3-3.59,1.12-5.39-32.02-48.77-36.81-106.18-36.85-106.76ZM183.91,43.28c1.54-19.83,18.16-35.5,38.38-35.5s36.85,15.67,38.39,35.5h0c-.05,0-.11,0-.16,0h-76.61Zm-45.35,58.3c5.35-13.74,21.87-50.51,45.51-50.51h76.45c23.64,0,40.16,36.77,45.51,50.51h-167.47Zm152.63,267.29c-22.62,23.73-46.04,38-65,39.75V109.37h84.66c45.31,18.41,51.32,71.46,52.08,87.35,3.05,63.75-33.83,132.4-71.74,172.16Z"/><path class="cls-1" d="m188.07,333.24h10.19c2.15,0,3.89-1.74,3.89-3.89s-1.74-3.89-3.89-3.89h-10.19c-1.99-44.93-38.17-81.11-83.1-83.1v-10.19c0-2.15-1.74-3.89-3.89-3.89s-3.89,1.74-3.89,3.89v10.19c-44.93,1.99-81.11,38.17-83.1,83.1H3.89c-2.15,0-3.89,1.74-3.89,3.89s1.74,3.89,3.89,3.89h10.19c1.99,44.93,38.17,81.11,83.1,83.1v10.19c0,2.15,1.74,3.89,3.89,3.89s3.89-1.74,3.89-3.89v-10.19c44.93-1.99,81.11-38.17,83.1-83.1Zm-83.1,75.31v-9.99c0-2.15-1.74-3.89-3.89-3.89s-3.89,1.74-3.89,3.89v9.99c-40.64-1.97-73.34-34.68-75.31-75.31h9.99c2.15,0,3.89-1.74,3.89-3.89s-1.74-3.89-3.89-3.89h-9.99c1.97-40.64,34.68-73.34,75.31-75.31v9.99c0,2.15,1.74,3.89,3.89,3.89s3.89-1.74,3.89-3.89v-9.99c40.64,1.97,73.34,34.68,75.31,75.31h-10c-2.15,0-3.89,1.74-3.89,3.89s1.74,3.89,3.89,3.89h10c-1.97,40.64-34.68,73.34-75.31,75.31Z"/><path class="cls-1" d="m114.24,325.46h-9.27v-9.27c0-2.15-1.74-3.89-3.89-3.89s-3.89,1.74-3.89,3.89v9.27h-9.27c-2.15,0-3.89,1.74-3.89,3.89s1.74,3.89,3.89,3.89h9.27v9.27c0,2.15,1.74,3.89,3.89,3.89s3.89-1.74,3.89-3.89v-9.27h9.27c2.15,0,3.89-1.74,3.89-3.89s-1.74-3.89-3.89-3.89Z"/></g></g></svg>