<?xml version="1.0" encoding="UTF-8"?><svg id="Capa_2" xmlns="http://www.w3.org/2000/svg" viewBox="0 0 441.55 441.55"><defs><style>.cls-1{fill:#4949e9;}</style></defs><g id="Capa_1-2"><g><path class="cls-1" d="m176.3,342.29c-.67,0-1.35-.17-1.97-.53-1.64-.96-2.34-2.96-1.67-4.73l35.25-93.35h-57.47c-1.51,0-2.89-.88-3.53-2.25-.64-1.37-.43-2.99.55-4.15l114.79-136.64c1.22-1.45,3.31-1.81,4.95-.85,1.64.96,2.34,2.96,1.67,4.73l-35.25,93.35h57.47c1.51,0,2.89.88,3.53,2.25.64,1.37.43,2.99-.55,4.15l-114.79,136.64c-.76.91-1.86,1.39-2.98,1.39Zm-17.5-106.4h54.74c1.28,0,2.47.63,3.2,1.68.73,1.05.89,2.39.44,3.59l-29.17,77.25,94.72-112.75h-54.74c-1.28,0-2.47-.63-3.2-1.68-.73-1.05-.89-2.39-.44-3.59l29.17-77.25-94.72,112.75Z"/><path class="cls-1" d="m220.77,441.55C99.04,441.55,0,342.51,0,220.77S99.04,0,220.77,0s220.77,99.04,220.77,220.77-99.04,220.77-220.77,220.77Zm0-433.76C103.33,7.79,7.79,103.33,7.79,220.77s95.55,212.99,212.99,212.99,212.99-95.55,212.99-212.99S338.22,7.79,220.77,7.79Z"/><path class="cls-1" d="m220.77,398.17c-97.82,0-177.4-79.58-177.4-177.4S122.96,43.38,220.77,43.38s177.4,79.58,177.4,177.4-79.58,177.4-177.4,177.4Zm0-347.01c-93.52,0-169.61,76.09-169.61,169.61s76.09,169.61,169.61,169.61,169.61-76.09,169.61-169.61S314.3,51.16,220.77,51.16Z"/></g></g></svg>