<?xml version="1.0" encoding="UTF-8"?><svg id="Capa_2" xmlns="http://www.w3.org/2000/svg" viewBox="0 0 430.42 430.42"><defs><style>.cls-1{fill:#4949e9;}</style></defs><g id="Capa_1-2"><g><path class="cls-1" d="m426.53,139.49h-59.03l-30.7-30.23c-.73-.72-1.71-1.12-2.73-1.12h-38.74c-2.15,0-3.89,1.74-3.89,3.89v86.9c0,2.15,1.74,3.89,3.89,3.89h51.35c13.49,0,24.88,11.59,24.88,25.3v169.62c0,13.72-11.16,24.89-24.88,24.89H83.74c-13.72,0-24.88-11.16-24.88-24.89v-169.62c0-13.71,11.4-25.3,24.88-25.3h51.35c2.15,0,3.89-1.74,3.89-3.89v-86.9c0-2.15-1.74-3.89-3.89-3.89h-38.74c-1.02,0-2,.4-2.73,1.12l-30.7,30.23H3.89c-2.15,0-3.89,1.74-3.89,3.89v283.14c0,2.15,1.74,3.89,3.89,3.89s3.89-1.74,3.89-3.89V147.28h56.73c1.02,0,2-.4,2.73-1.12l30.7-30.23h33.25v79.11h-47.45c-18.01,0-32.67,14.84-32.67,33.09v169.62c0,18.01,14.66,32.67,32.67,32.67h262.95c18.01,0,32.67-14.66,32.67-32.67v-169.62c0-18.24-14.66-33.09-32.67-33.09h-47.45v-79.11h33.25l30.7,30.23c.73.72,1.71,1.12,2.73,1.12h56.73v279.25c0,2.15,1.74,3.89,3.89,3.89s3.89-1.74,3.89-3.89V143.39c0-2.15-1.74-3.89-3.89-3.89Z"/><path class="cls-1" d="m176.86,381.79c2.15,0,3.89-1.74,3.89-3.89s-1.74-3.89-3.89-3.89h-19.31c-2.15,0-3.89,1.74-3.89,3.89s1.74,3.89,3.89,3.89h19.31Z"/><path class="cls-1" d="m272.87,381.79c2.15,0,3.89-1.74,3.89-3.89s-1.74-3.89-3.89-3.89h-19.31c-2.15,0-3.89,1.74-3.89,3.89s1.74,3.89,3.89,3.89h19.31Z"/><path class="cls-1" d="m128.85,334.17c2.15,0,3.89-1.74,3.89-3.89s-1.74-3.89-3.89-3.89h-19.31c-2.15,0-3.89,1.74-3.89,3.89s1.74,3.89,3.89,3.89h19.31Z"/><path class="cls-1" d="m224.86,334.17c2.15,0,3.89-1.74,3.89-3.89s-1.74-3.89-3.89-3.89h-19.3c-2.15,0-3.89,1.74-3.89,3.89s1.74,3.89,3.89,3.89h19.3Z"/><path class="cls-1" d="m320.88,334.17c2.15,0,3.89-1.74,3.89-3.89s-1.74-3.89-3.89-3.89h-19.31c-2.15,0-3.89,1.74-3.89,3.89s1.74,3.89,3.89,3.89h19.31Z"/><path class="cls-1" d="m426.53,48.94h-105.65c-46.92,0-85.09,38.17-85.09,85.09v164.14h-41.15v-164.14c0-69.61,56.63-126.24,126.24-126.24h105.65c2.15,0,3.89-1.74,3.89-3.89s-1.74-3.89-3.89-3.89h-105.65c-73.9,0-134.03,60.13-134.03,134.03v118.8c-3.51-1.65-7.73-2.78-13.18-2.78-11.82,0-17.91,5.23-23.29,9.83-4.98,4.27-9.28,7.96-18.22,7.96s-13.24-3.69-18.23-7.96c-5.38-4.61-11.47-9.83-23.29-9.83-2.15,0-3.89,1.74-3.89,3.89s1.74,3.89,3.89,3.89c8.94,0,13.24,3.69,18.23,7.96,5.38,4.61,11.47,9.84,23.29,9.84s17.91-5.23,23.29-9.84c4.98-4.27,9.28-7.96,18.22-7.96,5.91,0,9.79,1.63,13.18,3.96v40.26c0,2.15,1.74,3.89,3.89,3.89h48.94c2.15,0,3.89-1.74,3.89-3.89v-40.28c3.39-2.32,7.26-3.94,13.15-3.94,8.94,0,13.25,3.69,18.23,7.96,5.38,4.61,11.48,9.84,23.3,9.84s17.92-5.22,23.3-9.84c4.99-4.27,9.29-7.96,18.23-7.96,2.15,0,3.89-1.74,3.89-3.89s-1.74-3.89-3.89-3.89c-11.82,0-17.92,5.22-23.3,9.83-4.99,4.27-9.29,7.96-18.23,7.96s-13.25-3.69-18.24-7.96c-5.38-4.61-11.48-9.83-23.3-9.83-5.44,0-9.65,1.12-13.15,2.76v-118.79c0-42.63,34.68-77.31,77.31-77.31h105.65c2.15,0,3.89-1.74,3.89-3.89s-1.74-3.89-3.89-3.89Z"/></g></g></svg>