<?xml version="1.0" encoding="UTF-8"?><svg id="Capa_2" xmlns="http://www.w3.org/2000/svg" viewBox="0 0 449.08 441.55"><defs><style>.cls-1{fill:#4949e9;}</style></defs><g id="Capa_1-2"><g><path class="cls-1" d="m393.73,330.83c-10.96,0-21.18,3.21-29.78,8.73v-125.65c0-13.93-11.33-25.26-25.26-25.26h-4.08l-16.88-33.77c-.66-1.32-2.01-2.15-3.48-2.15h-78.58c-1.55,0-2.95.91-3.57,2.33l-14.7,33.59h-3.94c-13.93,0-25.26,11.33-25.26,25.26v22.9h-41.7L85.41,13.55c-.04-.15-.09-.29-.14-.43-3.22-7.97-10.86-13.12-19.46-13.12H20.99C9.41,0,0,9.41,0,20.99s9.41,20.99,20.99,20.99h30.28l50.37,194.83H26.34c-14.53,0-26.34,11.82-26.34,26.34v129.67c0,14.53,11.82,26.34,26.34,26.34h43.51c14.84,13.87,34.74,22.39,56.61,22.39s41.77-8.52,56.61-22.39h166.21c10.1,13.58,26.26,22.39,44.44,22.39,30.52,0,55.36-24.84,55.36-55.36s-24.83-55.36-55.36-55.36Zm-155.52-170.32h73.63l14.07,28.13h-100.01l12.31-28.13Zm-24.74,35.92h125.23c9.63,0,17.47,7.84,17.47,17.48v45.83h-57.36c-2.15,0-3.89,1.74-3.89,3.89s1.74,3.89,3.89,3.89h57.36v73.15h-38.59l-121.58-100.96v-25.8c0-9.64,7.84-17.48,17.47-17.48ZM58.05,37.1c-.44-1.72-1.99-2.92-3.77-2.92H20.99c-7.28,0-13.2-5.92-13.2-13.2s5.92-13.2,13.2-13.2h44.82c5.34,0,10.09,3.15,12.16,8.05l60.47,220.96h-28.76L58.05,37.1Zm-6.78,321.46c0-41.46,33.74-75.2,75.2-75.2s75.2,33.74,75.2,75.2-33.74,75.2-75.2,75.2-75.2-33.74-75.2-75.2Zm293.15,52.81h-153.99c9.37-11.33,15.79-25.19,18.09-40.38h65.65c2.15,0,3.89-1.74,3.89-3.89s-1.74-3.89-3.89-3.89h-64.85c.09-1.54.14-3.09.14-4.65,0-45.76-37.23-82.99-82.99-82.99s-82.99,37.23-82.99,82.99c0,20.05,7.15,38.45,19.02,52.81H26.34c-10.23,0-18.56-8.32-18.56-18.56v-129.67c0-10.23,8.32-18.56,18.56-18.56h163.33l124,102.97c.7.58,1.58.9,2.49.9h37.08s.02,0,.03,0c-9.24,9.9-14.91,23.16-14.91,37.73,0,9.07,2.21,17.63,6.09,25.19-.01,0-.02,0-.03,0Zm49.31,22.39c-26.23,0-47.57-21.34-47.57-47.58s21.34-47.57,47.57-47.57,47.57,21.34,47.57,47.57-21.34,47.58-47.57,47.58Z"/><path class="cls-1" d="m126.47,319.43c-21.58,0-39.14,17.56-39.14,39.14s17.56,39.14,39.14,39.14,39.14-17.56,39.14-39.14-17.56-39.14-39.14-39.14Zm0,70.49c-17.29,0-31.35-14.06-31.35-31.35s14.06-31.35,31.35-31.35,31.35,14.06,31.35,31.35-14.06,31.35-31.35,31.35Z"/></g></g></svg>