<?xml version="1.0" encoding="UTF-8"?><svg id="Capa_2" xmlns="http://www.w3.org/2000/svg" viewBox="0 0 419.3 419.3"><defs><style>.cls-1{fill:#4949e9;}</style></defs><g id="Capa_1-2"><g><path class="cls-1" d="m415.41,58.04h-26.43V21.69c0-11.96-9.73-21.69-21.69-21.69H21.69C9.73,0,0,9.73,0,21.69v80.49c0,11.96,9.73,21.69,21.69,21.69h345.6c11.96,0,21.69-9.73,21.69-21.69v-36.35h22.54v36.82c0,24.13-19.63,43.76-43.76,43.76h-125.62c-28.42,0-51.54,23.12-51.54,51.54v5.9h-17.81c-1.93,0-3.57,1.42-3.85,3.33-.89,6.06-21.73,148.69-21.73,164.85,0,26.07,21.21,47.29,47.29,47.29s47.29-21.21,47.29-47.29c0-16.16-20.84-158.78-21.73-164.85-.28-1.91-1.92-3.33-3.85-3.33h-17.81v-5.9c0-24.13,19.63-43.76,43.76-43.76h125.62c28.42,0,51.54-23.12,51.54-51.54v-40.71c0-2.15-1.74-3.89-3.89-3.89Zm-34.22,44.14c0,7.67-6.24,13.9-13.9,13.9H21.69c-7.67,0-13.9-6.24-13.9-13.9V21.69c0-7.67,6.24-13.9,13.9-13.9h345.6c7.67,0,13.9,6.24,13.9,13.9v80.49Zm-147.2,269.84c0,21.78-17.72,39.5-39.5,39.5s-39.5-17.72-39.5-39.5c0-14.28,17.96-138.35,21.16-160.39h36.67c3.21,22.04,21.17,146.11,21.17,160.39Z"/><path class="cls-1" d="m328.21,84.67H60.77c-2.15,0-3.89,1.74-3.89,3.89s1.74,3.89,3.89,3.89h267.43c2.15,0,3.89-1.74,3.89-3.89s-1.74-3.89-3.89-3.89Z"/></g></g></svg>