<?xml version="1.0" encoding="UTF-8"?><svg id="Capa_2" xmlns="http://www.w3.org/2000/svg" viewBox="0 0 424.78 430.43"><defs><style>.cls-1{fill:#4949e9;}</style></defs><g id="Capa_1-2"><g><path class="cls-1" d="m180.08,297.03c-57.24,57.24-115.89,115.89-117.21,117.21-11.18,11.18-29.37,11.18-40.54,0-11.18-11.18-11.18-29.37,0-40.54l117.21-117.22c1.52-1.52,1.52-3.98,0-5.5-1.52-1.52-3.98-1.52-5.5,0l-117.21,117.22c-14.21,14.21-14.21,37.34,0,51.55,7.11,7.11,16.44,10.66,25.78,10.66,9.33,0,18.67-3.55,25.77-10.66,1.33-1.33,59.98-59.98,117.22-117.22,1.52-1.52,1.52-3.98,0-5.5-1.52-1.52-3.98-1.52-5.5,0Z"/><path class="cls-1" d="m423.64,96.14l-11.74-11.74c-.73-.73-1.72-1.14-2.75-1.14s-2.02.41-2.75,1.14l-48.74,48.74-40.96-13.28-13.28-40.96,48.74-48.74c1.52-1.52,1.52-3.98,0-5.5l-11.74-11.74c-1.17-1.17-2.96-1.47-4.45-.75-.52.25-52.19,25.33-71.67,35.35-22.31,11.48-21.65,27.96-14.32,68.7,2.93,16.28-7.3,26.22-8.59,27.41l-13.88,13.87c-1.52,1.52-1.52,3.98,0,5.5,1.52,1.52,3.98,1.52,5.5,0l13.76-13.76c1.5-1.37,14.54-14.03,10.87-34.41-7.25-40.32-6.8-51.64,10.22-60.4,16.94-8.72,58.41-28.91,69.01-34.06l7.02,7.02-47.67,47.67c-1.04,1.03-1.4,2.56-.95,3.95l14.63,45.12c.38,1.19,1.32,2.12,2.5,2.5l45.12,14.63c1.39.46,2.92.09,3.95-.95l47.67-47.67,7.02,7.02c-5.15,10.59-25.34,52.07-34.06,69.01-8.76,17.02-20.07,17.47-60.4,10.22-20.38-3.68-33.03,9.37-34.29,10.75l-13.87,13.88c-1.52,1.52-1.52,3.98,0,5.5.76.76,1.76,1.14,2.75,1.14s1.99-.38,2.75-1.14l13.99-14c1.08-1.18,11.01-11.41,27.3-8.48,40.74,7.33,57.22,7.99,68.7-14.32,10.02-19.48,35.1-71.15,35.35-71.67.72-1.49.42-3.28-.75-4.45Z"/><path class="cls-1" d="m143.21,124.34l8.56-8.56c1.52-1.52,1.52-3.99,0-5.5l-4.86-4.86c5.35-13.33,17.42-17.06,30.18-20.99,14.1-4.33,30.08-9.25,30.64-30.05.03-1.07-.38-2.1-1.14-2.86L156.21,1.14c-.75-.75-1.77-1.17-2.86-1.14-20.85.56-25.31,16.97-29.25,31.44-3.57,13.13-6.97,25.55-20.24,30.92l-3.31-3.31c-1.52-1.52-3.98-1.52-5.5,0l-60.95,60.95c-.52.52-51.38,52.25-27.9,112.96,3.24,8.39,9.25,17.22,16.49,17.22.14,0,.28,0,.42,0,5.41-.25,9.51-5.17,12.18-14.62h0c18.63-65.92,50.39-58.18,51.7-57.83,1.36.39,2.83.01,3.83-.99l9.42-9.42,242.72,257.68c3.62,3.62,8.38,5.44,13.12,5.44s9.39-1.78,12.95-5.35l33.4-33.4c7.16-7.16,7.12-18.86-.19-26.17L143.21,124.34Zm-11.6-90.85c4.22-15.52,7.33-24.59,20.31-25.62l47.93,47.93c-1.04,13.13-10.32,16.66-25.06,21.19-12.54,3.85-26.57,8.17-33.79,22.53l-31.26-31.26c14.4-7.34,18.34-21.82,21.86-34.77Zm-44.86,136.3c-3.91-.51-12.19-.66-21.81,4.69-16.13,8.97-28.63,28.81-37.15,58.96-1.98,7-4.17,8.92-5.06,8.96-1.78.06-6.18-4.22-9.28-12.24-21.63-55.92,25.66-104.16,26.14-104.64l58.2-58.2,45.71,45.71-56.76,56.76Zm310.18,216.39l-33.4,33.4c-4.13,4.13-10.89,4.09-14.98,0L105.75,161.8l31.96-31.96,259.13,241.27c4.18,4.18,4.22,10.94.09,15.06Z"/></g></g></svg>