<?xml version="1.0" encoding="UTF-8"?><svg id="Capa_2" xmlns="http://www.w3.org/2000/svg" viewBox="0 0 428.71 408.18"><defs><style>.cls-1{fill:#4949e9;}</style></defs><g id="Capa_1-2"><g><path class="cls-1" d="m424.82,0H83.71c-15.96,0-28.95,12.99-28.95,28.95v130.27c0,15.96,12.99,28.95,28.95,28.95h110.59v72.71H43.64v-15.7c0-2.15-1.74-3.89-3.89-3.89H3.89c-2.15,0-3.89,1.74-3.89,3.89v159.12c0,2.15,1.74,3.89,3.89,3.89h35.86c2.15,0,3.89-1.74,3.89-3.89v-17.11l228.24-70.15c1.64-.5,2.75-2.01,2.75-3.72v-48.55c0-2.15-1.74-3.89-3.89-3.89h-13.62v-72.71h106.34c2.15,0,3.89-1.74,3.89-3.89v-29.68h32.34c2.15,0,3.89-1.74,3.89-3.89v-76.48l23.94-23.13c.76-.73,1.19-1.74,1.19-2.8V3.89c0-2.15-1.74-3.89-3.89-3.89ZM35.86,400.4H7.79v-151.34h28.07v151.34Zm230.99-89.96l-223.21,68.6v-110.38h223.21v41.79Zm-17.52-49.57h-47.24v-72.71h47.24v72.71Zm146.47-114.07h-28.45v-37.57l28.45-27.49v65.06Zm25.13-100.17l-60.17,58.14c-.76.73-1.19,1.74-1.19,2.8v72.8H83.71c-11.67,0-21.16-9.49-21.16-21.16V28.95c0-11.67,9.49-21.16,21.16-21.16h337.21v38.85Z"/><path class="cls-1" d="m121.11,124.26c2.15,0,3.89-1.74,3.89-3.89v-52.58c0-2.15-1.74-3.89-3.89-3.89s-3.89,1.74-3.89,3.89v52.58c0,2.15,1.74,3.89,3.89,3.89Z"/><path class="cls-1" d="m159.65,124.26c2.15,0,3.89-1.74,3.89-3.89v-52.58c0-2.15-1.74-3.89-3.89-3.89s-3.89,1.74-3.89,3.89v52.58c0,2.15,1.74,3.89,3.89,3.89Z"/><path class="cls-1" d="m198.19,124.26c2.15,0,3.89-1.74,3.89-3.89v-52.58c0-2.15-1.74-3.89-3.89-3.89s-3.89,1.74-3.89,3.89v52.58c0,2.15,1.74,3.89,3.89,3.89Z"/></g></g></svg>