<?xml version="1.0" encoding="UTF-8"?><svg id="Capa_2" xmlns="http://www.w3.org/2000/svg" viewBox="0 0 452.67 452.67"><defs><style>.cls-1{fill:#4949e9;}</style></defs><g id="Capa_1-2"><g><path class="cls-1" d="m448.78,35.21c-2.15,0-3.89,1.74-3.89,3.89v195.04h-45.16v-26.25c0-20.55-16.71-37.26-37.26-37.26H90.2c-20.55,0-37.26,16.71-37.26,37.26v26.25H7.79V39.1c0-2.15-1.74-3.89-3.89-3.89s-3.89,1.74-3.89,3.89v198.94c0,2.15,1.74,3.89,3.89,3.89h49.05v173.48c0,20.55,16.71,37.26,37.26,37.26h272.27c20.55,0,37.26-16.71,37.26-37.26v-173.48h49.05c2.15,0,3.89-1.74,3.89-3.89V39.1c0-2.15-1.74-3.89-3.89-3.89Zm-56.84,335.74h-53.41c-2.15,0-3.89,1.74-3.89,3.89s1.74,3.89,3.89,3.89h53.41v36.67c0,16.25-13.22,29.47-29.47,29.47H90.2c-16.25,0-29.47-13.22-29.47-29.47v-36.67h53.41c2.15,0,3.89-1.74,3.89-3.89s-1.74-3.89-3.89-3.89h-53.41v-163.06c0-16.25,13.22-29.47,29.47-29.47h272.27c16.25,0,29.47,13.22,29.47,29.47v163.06Z"/><path class="cls-1" d="m130.23,47.59c25.67-25.67,59.8-39.81,96.11-39.81s70.43,14.14,96.11,39.81c.76.76,1.76,1.14,2.75,1.14s1.99-.38,2.75-1.14c1.52-1.52,1.52-3.98,0-5.5C300.8,14.95,264.72,0,226.33,0s-74.47,14.95-101.61,42.09c-1.52,1.52-1.52,3.98,0,5.5,1.52,1.52,3.98,1.52,5.5,0Z"/><path class="cls-1" d="m292.08,81.85c1,0,1.99-.38,2.75-1.14,1.52-1.52,1.52-3.98,0-5.5-18.3-18.3-42.62-28.37-68.5-28.37s-50.2,10.07-68.5,28.37c-1.52,1.52-1.52,3.98,0,5.5,1.52,1.52,3.98,1.52,5.5,0,16.83-16.82,39.2-26.09,62.99-26.09s46.17,9.27,62.99,26.09c.76.76,1.76,1.14,2.75,1.14Z"/><path class="cls-1" d="m190.95,108.32c-1.52,1.52-1.52,3.98,0,5.5,1.52,1.52,3.98,1.52,5.5,0,16.47-16.47,43.28-16.47,59.76,0,.76.76,1.76,1.14,2.75,1.14s1.99-.38,2.75-1.14c1.52-1.52,1.52-3.98,0-5.5-19.51-19.51-51.26-19.51-70.77,0Z"/><path class="cls-1" d="m297.57,346.93h-142.48c-2.15,0-3.89,1.74-3.89,3.89v48.04c0,2.15,1.74,3.89,3.89,3.89h142.48c2.15,0,3.89-1.74,3.89-3.89v-48.04c0-2.15-1.74-3.89-3.89-3.89Zm-3.89,48.04h-134.69v-40.26h134.69v40.26Z"/><path class="cls-1" d="m181.04,321.82c4.6,0,8.34-3.74,8.34-8.34s-3.74-8.34-8.34-8.34-8.34,3.74-8.34,8.34,3.74,8.34,8.34,8.34Z"/><circle class="cls-1" cx="226.33" cy="313.48" r="8.34"/><circle class="cls-1" cx="271.63" cy="313.48" r="8.34"/></g></g></svg>