<?xml version="1.0" encoding="UTF-8"?><svg id="Capa_2" xmlns="http://www.w3.org/2000/svg" viewBox="0 0 446.88 446.2"><defs><style>.cls-1{fill:#4949e9;}</style></defs><g id="Capa_1-2"><g><path class="cls-1" d="m90.62,446.2c-1.69,0-3.38-.67-4.64-2-20.78-22.04-40.88-56.67-56.6-97.5C13.11,304.47,3.1,259.19,1.18,219.19-.49,183.47-3.6,116.98,18.45,80.45c2.32-3.89,6.85-8.5,11.52-11.71,6.82-4.67,13.55-6.29,19.46-4.66,17.48,4.81,17.48,33.46,17.48,42.88,0,26.3,2.58,57.23,8.12,97.34,3.59,26.02,7.99,43.87,20.92,63.65,1.93,2.94,1.1,6.89-1.85,8.82-2.95,1.92-6.89,1.1-8.82-1.85-14.25-21.8-19.03-41.02-22.88-68.88-5.62-40.7-8.24-72.18-8.24-99.08,0-20.91-4.19-29.51-8.12-30.59-5.04-1.38-14.08,6.27-16.68,10.63-20.07,33.26-16.97,99.68-15.47,131.59,3.71,77.15,39.44,172.42,81.35,216.87,2.41,2.56,2.29,6.59-.27,9.01-1.23,1.16-2.8,1.73-4.37,1.73Z"/><path class="cls-1" d="m65.45,184.35c-.62,0-1.25-.09-1.87-.28-3.36-1.03-5.26-4.59-4.23-7.96,2.12-6.94,4.34-15.98,6.9-26.45,11.06-45.18,27.78-113.45,68.06-132.76,9.53-4.57,20.9-3.45,30.43,2.98,11.26,7.61,17.68,21.17,16.76,35.41-.23,3.51-3.27,6.19-6.77,5.95-3.51-.23-6.17-3.26-5.95-6.77.64-9.88-3.54-18.87-11.18-24.03-5.74-3.88-12.39-4.64-17.79-2.05-34.84,16.71-50.7,81.45-61.19,124.3-2.61,10.66-4.87,19.87-7.09,27.15-.84,2.74-3.36,4.51-6.09,4.51Z"/><path class="cls-1" d="m120.34,248.25c-2.21,0-4.35-1.15-5.53-3.2-16.97-29.51,2.38-106.93,31.03-156.44,28.15-48.66,55.55-58.87,73.58-58.87,10.84,0,18.15,3.47,21.73,10.32,7.8,14.95-7.2,39.82-21.14,59.82-.49.7-.92,1.32-1.28,1.84-1.99,2.9-5.96,3.63-8.86,1.64-2.9-1.99-3.63-5.96-1.64-8.86.37-.54.82-1.18,1.33-1.91,22.21-31.86,22.25-42.89,20.3-46.63-1.5-2.87-6.5-3.47-10.43-3.47-20.75,0-42.96,18.65-62.55,52.51-28.76,49.72-44.12,120.9-31.01,143.7,1.75,3.05.7,6.94-2.35,8.7-1,.58-2.09.85-3.17.85Z"/><path class="cls-1" d="m201.69,240.08c-.11,0-.22,0-.33,0-3.51-.18-6.22-3.17-6.04-6.68.13-2.51.23-5.29.34-8.25.79-21.28,1.86-50.42,13.97-65.35,17.11-21.09,35.68-17.83,50.6-15.22,9.32,1.63,17.37,3.04,24.33-.94.05-.03.09-.05.14-.08,6.01-3.24,11.2-10.03,9.47-16.73-5.2-20.54-31.52-30-53.65-28.47-.09,0-.18,0-.28.01-20.94.53-38.9,10.03-53.4,28.25-21.31,26.78-29.33,65.89-24.78,88.23.7,3.45-1.52,6.81-4.97,7.52-3.45.7-6.81-1.52-7.52-4.97-5.07-24.86,2.77-67.9,27.29-98.71,16.68-20.97,38.44-32.39,62.91-33.05,13.76-.93,28.34,1.81,40.04,7.51,14.15,6.89,23.38,17.45,26.69,30.52,3.01,11.65-3.44,24.42-15.69,31.07-10.93,6.22-22.54,4.19-32.79,2.39-14.01-2.45-26.12-4.58-38.51,10.7-9.43,11.62-10.45,39.4-11.13,57.79-.11,3.03-.22,5.86-.35,8.43-.17,3.4-2.99,6.05-6.36,6.05Z"/><path class="cls-1" d="m317.76,391.67c-1.83,0-3.64-.78-4.9-2.3-22.46-27-31.54-49.38-27.77-68.41.04-.2.09-.41.15-.6.92-3.06,3.11-8.86,6.13-16.89,7.08-18.81,18.92-50.28,26.58-78.96,11.89-44.53,6.69-56.43,3.9-59.48-.72-.79-2.91-3.19-10.54-1.08-12.81,3.65-27.41,21.55-34.11,36.75-.07.16-.15.31-.23.46-7.08,13.09-17.05,23-29.61,29.46-6.21,3.18-14.89,4.35-22.54,5.38-1.45.2-2.86.38-4.2.58-12.25,1.67-22.08,4.11-31.95,7.91-35.78,13.32-61.27,41.3-65,71.32-.43,3.49-3.62,5.98-7.11,5.54-3.49-.43-5.97-3.62-5.54-7.11,4.31-34.67,33.01-66.73,73.13-81.66,10.76-4.14,21.48-6.81,34.67-8.61,1.33-.2,2.79-.39,4.29-.59,6.64-.89,14.17-1.91,18.43-4.09,10.16-5.22,18.27-13.29,24.1-23.97,8.01-18.03,25.03-38.74,42.21-43.63,12.57-3.48,19.66.66,23.39,4.75,18.09,19.79-2.75,84.52-27.96,151.52-2.72,7.23-4.89,13-5.76,15.79-2.76,14.78,5.69,34.11,25.12,57.48,2.25,2.71,1.88,6.72-.82,8.97-1.19.99-2.63,1.47-4.07,1.47Z"/><path class="cls-1" d="m393.91,142.65c-2.51,0-4.88-1.49-5.89-3.95-1.34-3.25.22-6.98,3.47-8.31l46.61-19.17c3.25-1.34,6.98.21,8.32,3.47,1.34,3.25-.21,6.98-3.47,8.31l-46.61,19.17c-.79.33-1.61.48-2.42.48Z"/><path class="cls-1" d="m382.16,87.02c-1.72,0-3.44-.69-4.7-2.06-2.38-2.59-2.2-6.62.39-9l35.05-32.15c2.59-2.38,6.62-2.2,9,.39,2.38,2.59,2.2,6.62-.39,9l-35.05,32.15c-1.22,1.12-2.77,1.68-4.3,1.68Z"/><path class="cls-1" d="m332.51,61.26c-.76,0-1.54-.14-2.29-.43-3.28-1.27-4.92-4.95-3.65-8.24l18.69-48.51c1.26-3.28,4.95-4.92,8.24-3.65,3.28,1.27,4.92,4.95,3.65,8.24l-18.69,48.51c-.97,2.53-3.39,4.08-5.95,4.08Z"/></g></g></svg>