<?xml version="1.0" encoding="UTF-8"?><svg id="Capa_2" xmlns="http://www.w3.org/2000/svg" viewBox="0 0 472.62 426.23"><defs><style>.cls-1{fill:#4949e9;}</style></defs><g id="Capa_1-2"><g><path class="cls-1" d="m99.64,425.44c-.82.54-1.82.83-2.88.78-2.67-.13-4.73-2.39-4.61-5.06.59-12.35,1.01-44.9-7.64-80.17-9.27-37.82-25.9-67.43-49.41-88-.06-.05-.12-.1-.17-.16-2.12-2.04-4.19-3.99-6.18-5.87-3.21-3.03-6.24-5.89-8.89-8.57-5.36-5.46-9.17-10.07-10.36-14.87-.78-3.24-.21-6.3,1.65-8.85,3.8-5.23,11.5-6.19,13.77-6.37,15.72-1.13,30.23,4.66,43.75,10.69,2.44,1.09,3.54,3.95,2.45,6.39-1.09,2.44-3.95,3.54-6.39,2.45-12.39-5.53-25.62-10.84-39.09-9.88-3.24.25-5.93,1.42-6.66,2.41-.1.13-.21.29-.07.86.78,3.18,5.92,8.41,7.85,10.37,2.51,2.55,5.48,5.35,8.63,8.32,1.99,1.87,4.06,3.82,6.17,5.86,25,21.91,42.61,53.17,52.35,92.91,8.63,35.19,8.65,67.06,7.9,82.93-.08,1.61-.93,3-2.18,3.82Z"/><path class="cls-1" d="m103.26,277.11c-.08.05-.16.1-.25.15-2.32,1.33-5.28.53-6.61-1.79-3.42-5.96-6.51-11.32-9.81-16.56-11.63-18.57-26.49-35.72-38.43-49.49-14.43-16.64-24.85-28.65-25.79-37.79-.01-.1-.02-.21-.02-.31-.22-5.71,1.97-10.4,6.32-13.58,7.51-5.45,19.52-4.87,27.51-1.99,1.33.48,2.63.93,3.9,1.38,11.35,3.95,21.16,7.37,35.39,23.76,1.75,2.02,1.54,5.07-.48,6.83-2.02,1.75-5.07,1.54-6.83-.48-12.54-14.44-20.8-17.32-31.26-20.96-1.31-.46-2.64-.92-4.01-1.41-5.65-2.04-14.35-2.34-18.5.7-1.68,1.23-2.42,2.85-2.36,5.23.78,6.14,11.8,18.85,23.45,32.29,12.16,14.03,27.3,31.48,39.32,50.68,3.39,5.38,6.54,10.83,10.01,16.89,1.28,2.23.58,5.06-1.54,6.45Z"/><path class="cls-1" d="m127.97,264.88c-.67.44-1.45.72-2.31.78-2.67.19-4.98-1.82-5.17-4.48-1.71-23.99-21.41-56.05-37.25-81.81-10.18-16.57-18.97-30.87-22.46-41.51-.1-.32-.18-.65-.21-.98-.59-5.38,1.58-10.89,5.95-15.11,4.93-4.77,11.74-7.2,17.79-6.35,9.41,1.16,31.92,13.29,41.29,21.19,2.04,1.72,2.3,4.78.58,6.82-1.72,2.04-4.78,2.3-6.82.58-9.38-7.92-29.92-18.23-36.25-18.99-.04,0-.08,0-.12-.01-3.06-.44-6.98,1.05-9.74,3.72-1.23,1.19-3.22,3.6-3.09,6.65,3.28,9.56,12.05,23.83,21.33,38.93,17.24,28.05,36.77,59.84,38.65,86.19.13,1.81-.76,3.46-2.18,4.4Z"/><path class="cls-1" d="m232.05,405.32c-1.16.76-2.63,1.02-4.06.59-2.56-.77-4.01-3.48-3.23-6.03,12.7-41.99,4.7-123.16-41.78-209.85-13.37-24.04-36-50.57-54.1-52.01-.81.01-.96.22-1.02.29-.89,1.25-.85,5.48.79,10.13.01.03.02.06.03.1,2.8,8.56,7.1,16.18,11.66,24.26,2.11,3.73,4.28,7.59,6.33,11.59,9.74,18.19,14.72,44.02,12.65,65.74-.25,2.66-2.62,4.61-5.28,4.36-2.66-.25-4.61-2.62-4.36-5.28,1.9-19.95-2.65-43.63-11.59-60.33-2-3.91-4.13-7.67-6.18-11.32-4.58-8.12-9.32-16.51-12.41-25.96-1.03-2.95-3.92-12.76.5-18.92,2.03-2.83,5.26-4.37,9.11-4.34.1,0,.2,0,.3.01,11.31.81,23.6,8.16,36.53,21.84,13.06,13.82,22.21,29.22,25.53,35.2,34.47,64.29,60.97,156.37,42.55,217.29-.34,1.13-1.06,2.05-1.98,2.65Z"/><path class="cls-1" d="m89.66,333.74c-1.28.84-2.93,1.06-4.45.45-11.22-4.48-33.22-13.38-54.55-22.71l-.71-.32c-5.1-2.28-10.37-4.64-15.26-7.85-.04-.02-.08-.05-.11-.08-6.38-4.45-14.84-11.47-14.58-21.02,0-.11.01-.23.02-.34.17-1.79.97-4.39,3.76-6.57,9.53-7.42,39.37-4.3,56.32-1.77,2.64.39,4.47,2.86,4.07,5.5-.39,2.64-2.86,4.47-5.5,4.07-29.53-4.41-46.44-2.72-48.99-.15.31,5.25,7.77,10.49,10.37,12.3,4.23,2.77,8.9,4.86,13.85,7.07l.67.3c21.16,9.26,43.05,18.11,54.22,22.57,2.48.99,3.69,3.81,2.7,6.29-.38.96-1.04,1.73-1.84,2.25Z"/><path class="cls-1" d="m384.74,283.22c-.9.59-1.99.88-3.14.76-41.44-4.24-98.89-16.89-137.27-53.09-6.47-6.25-12.46-13.4-18.9-22.55-.03-.04-.05-.08-.08-.12-50.37-76.17-64.22-120.51-42.34-135.53,2.25-1.53,5.22-.95,6.73,1.25,1.51,2.2.95,5.22-1.25,6.73-15.67,10.77.69,55.29,44.9,122.16,6.14,8.73,11.58,15.22,17.62,21.06,36.36,34.29,91.62,46.37,131.57,50.46,2.66.27,4.59,2.65,4.32,5.31-.15,1.51-.99,2.79-2.16,3.56Z"/><path class="cls-1" d="m240.66,176.34c-2.2,1.44-5.16.86-6.65-1.32-.16-.24-16.83-25.02-30.99-54.23-17.1-35.28-21.72-58.59-14.12-71.27,4.67-7.79,13.4-11.05,25.94-9.69,2.66.29,4.58,2.68,4.29,5.33-.29,2.66-2.68,4.58-5.33,4.29-12.74-1.38-15.64,3.45-16.59,5.04-3.21,5.36-5.59,20.55,14.53,62.07,12.02,24.81,26.94,48.11,30.27,52.99,1.51,2.21.94,5.22-1.27,6.73-.03.02-.05.04-.08.05Z"/><path class="cls-1" d="m263.75,151.82c-.06.04-.12.08-.18.11-2.3,1.37-5.27.62-6.64-1.68-1.49-2.49-3.71-5.92-6.28-9.89-17.19-26.5-49.2-75.84-36.93-108.31.02-.06.04-.11.07-.17,2.94-6.98,11.16-14.69,19.83-15.49,6.98-.65,14.19,2.93,21.43,10.65,4.5,4.8,8.54,10.91,9.06,12.69.66,2.22-.35,4.62-2.39,5.69-2.05,1.07-4.64.48-6.09-1.32-.36-.45-.64-.95-.81-1.47-2.38-4.26-12.2-17.36-20.3-16.6-4.51.42-10,5.45-11.77,9.54-10.43,27.91,20.94,76.28,36.03,99.53,2.63,4.05,4.9,7.55,6.48,10.2,1.33,2.24.65,5.11-1.5,6.52Z"/><path class="cls-1" d="m341.45,121l-.06.04c-2.26,1.43-5.25.77-6.68-1.49-9.47-14.9-17.61-29.83-24.88-45.64-3.04-6.11-6.23-13.59-9.3-20.81-3.83-9-7.79-18.3-11.59-25.29-5.37-9.87-7.92-10.41-8.03-10.43-.04,0-.06,0-.1-.01-1.47-.18-2.56.2-5.65,2.64-12.27,11.38-14.49,28.47-6.6,50.79,5.4,15.26,15.15,32.35,29.82,52.23,1.59,2.15,1.13,5.18-1.02,6.77-2.17,1.57-5.18,1.13-6.77-1.02-15.24-20.66-25.43-38.57-31.15-54.75-9.33-26.4-6.2-47.01,9.31-61.26.09-.08.18-.16.27-.23,3.64-2.88,7.37-5.42,12.9-4.77,9.79,1,16.84,16.45,27.52,41.55,3.17,7.45,6.17,14.49,9.09,20.35.02.05.04.09.07.14,7.09,15.44,15.04,30.01,24.29,44.56,1.42,2.24.78,5.2-1.43,6.64Z"/><path class="cls-1" d="m470.43,160.36c-.88.58-1.96.87-3.09.77-21.85-2.02-51.4-8.46-68.11-27.73-15.12-17.48-19.77-42.43-14.2-76.26.84-8.47-1.04-15.61-4.69-17.81-3.62-2.18-9.25.89-12.26,2.94-21.11,14.41-23.23,51.5-21.14,71.14.93,9.81-5.09,14.77-10.91,19.57l-.43.36c-5.01,4.12-9.97,8.36-15.58,15.02-5.23,6.2-10.04,13.3-13.9,20.53-9.81,19.7-10.06,29.3-10.31,38.58-.07,2.67-2.29,4.78-4.97,4.71-2.67-.07-4.78-2.3-4.71-4.97.32-11.92,1.36-22.64,11.35-42.7.02-.04.04-.08.06-.12,4.19-7.84,9.4-15.54,15.07-22.27,6.14-7.28,11.46-11.84,16.83-16.25l.43-.35c5.46-4.5,7.86-6.68,7.43-11.13-.66-6.24-1.81-22.8,2-40.55,3.94-18.38,11.79-31.7,23.35-39.58,10.9-7.33,18.36-5.81,22.67-3.22,7.15,4.29,10.63,14.47,9.32,27.24-.01.1-.02.2-.04.29-5.1,30.9-1.2,53.3,11.95,68.5,14.6,16.84,41.6,22.58,61.68,24.43,2.66.25,4.62,2.6,4.37,5.26-.14,1.53-.98,2.82-2.17,3.6Z"/><path class="cls-1" d="m130.84,55.57c-.31.2-.65.38-1.02.51-2.51.91-5.29-.4-6.19-2.91l-13.56-37.62c-.91-2.52.4-5.29,2.91-6.19,2.51-.91,5.29.4,6.19,2.91l13.56,37.62c.77,2.15-.07,4.49-1.9,5.69Z"/><path class="cls-1" d="m168.28,49.1c-.92.6-2.05.9-3.23.76-2.65-.32-4.55-2.73-4.23-5.38l4.85-40.21c.32-2.65,2.73-4.55,5.38-4.23,2.65.32,4.55,2.73,4.23,5.38l-4.85,40.21c-.18,1.48-1,2.71-2.15,3.47Z"/><path class="cls-1" d="m104.45,79.6c-1.74,1.14-4.1,1.06-5.77-.35l-31.44-26.51c-2.04-1.72-2.3-4.78-.58-6.82,1.72-2.05,4.78-2.3,6.82-.58l31.44,26.51c2.04,1.72,2.3,4.78.58,6.82-.31.37-.67.68-1.05.93Z"/></g></g></svg>