<?xml version="1.0" encoding="UTF-8"?><svg id="Capa_2" xmlns="http://www.w3.org/2000/svg" viewBox="0 0 780.03 251.28"><defs><style>.cls-1{fill:#dcf343;}</style></defs><g id="Capa_1-2"><g><path class="cls-1" d="m248.11,251.28c-5.41,0-10.75-3.07-15.44-8.89-1.3-1.61-1.05-3.96.56-5.26,1.61-1.3,3.96-1.05,5.26.56,2.25,2.79,5.75,6.11,9.62,6.11,1.08,0,2.14-.25,3.24-.77,1.01-.48,2.63-1.49,4.67-3.62,1.43-1.49,3.8-1.54,5.29-.11,1.49,1.43,1.54,3.8.11,5.29-2.26,2.36-4.58,4.11-6.87,5.2-2.09.99-4.26,1.49-6.44,1.49Zm22.48-29.9c-.25,0-.5-.03-.75-.08-2.02-.41-3.33-2.39-2.92-4.41.77-3.8,1.17-7.74,1.17-11.71,0-4.6-.53-9.29-1.58-13.93-.46-2.02.81-4.02,2.82-4.47,2.02-.46,4.02.81,4.47,2.82,1.17,5.18,1.77,10.43,1.77,15.58,0,4.47-.45,8.92-1.32,13.21-.36,1.77-1.92,2.99-3.66,2.99Zm-46.1-2.47c-1.7,0-3.24-1.17-3.64-2.9-1.39-6.05-2.13-12.31-2.13-18.09,0-3.74.3-7.32.89-10.64.36-2.03,2.31-3.39,4.34-3.02,2.03.37,3.39,2.31,3.02,4.34-.52,2.89-.78,6.02-.78,9.32,0,5.23.67,10.9,1.94,16.42.46,2.01-.79,4.02-2.81,4.48-.28.06-.56.1-.84.1Zm388.2-6.14c-2.61,0-5.25-.03-7.93-.1-2.07-.05-3.7-1.76-3.65-3.83.05-2.07,1.8-3.72,3.83-3.65,9.33.22,18.32.05,27.07-.52,2.02-.12,3.84,1.43,3.98,3.49s-1.43,3.84-3.49,3.98c-6.46.42-13.12.63-19.81.63Zm-35.2-1.85c-.13,0-.26,0-.38-.02-8.93-.91-18.15-2.18-27.42-3.76-2.04-.35-3.41-2.28-3.06-4.32.35-2.04,2.29-3.4,4.32-3.06,9.1,1.55,18.16,2.79,26.92,3.69,2.06.21,3.55,2.05,3.34,4.1-.2,1.93-1.82,3.36-3.72,3.36Zm81.99-1.93c-1.79,0-3.38-1.29-3.68-3.12-.35-2.04,1.03-3.97,3.06-4.31,9.03-1.53,17.87-3.55,26.28-6.01,1.97-.58,4.06.56,4.64,2.54.58,1.98-.56,4.06-2.54,4.64-8.69,2.54-17.82,4.63-27.14,6.21-.21.04-.42.05-.63.05Zm-136.04-7.22c-.28,0-.56-.03-.85-.1-8.75-2.03-17.74-4.36-26.73-6.94-1.99-.57-3.13-2.64-2.56-4.63.57-1.98,2.64-3.14,4.62-2.56,8.86,2.54,17.73,4.84,26.36,6.84,2.01.47,3.27,2.48,2.8,4.49-.4,1.73-1.94,2.9-3.64,2.9Zm188.5-8.27c-1.44,0-2.81-.83-3.42-2.23-.84-1.89.02-4.1,1.91-4.93,8.32-3.68,16.29-7.93,23.7-12.62,1.74-1.11,4.05-.59,5.16,1.16,1.11,1.74.58,4.06-1.16,5.16-7.72,4.89-16.02,9.31-24.68,13.14-.49.22-1.01.32-1.51.32Zm-241.24-6.77c-.38,0-.77-.06-1.16-.19-8.89-2.9-17.67-5.68-26.08-8.26-1.97-.61-3.08-2.7-2.48-4.67.6-1.97,2.69-3.09,4.67-2.48,8.46,2.6,17.28,5.39,26.21,8.3,1.97.64,3.04,2.75,2.4,4.72-.51,1.58-1.98,2.58-3.56,2.58Zm-52.45-16.05c-.34,0-.68-.05-1.02-.14-9.11-2.58-17.99-4.96-26.39-7.09-2-.51-3.21-2.54-2.71-4.54.51-2,2.56-3.21,4.54-2.71,8.47,2.15,17.41,4.55,26.59,7.15,1.99.56,3.14,2.63,2.58,4.62-.47,1.65-1.97,2.72-3.6,2.72Zm-158.71-1.65c-1.24,0-2.46-.62-3.17-1.75-2.41-3.84-5.2-7.64-8.35-11.38-4.56,2.5-8.28,5.58-11.25,9.31-1.29,1.62-3.64,1.88-5.26.59-1.61-1.29-1.88-3.64-.59-5.26,3.27-4.1,7.23-7.53,11.98-10.34-1.08-1.13-2.19-2.25-3.34-3.37-1.48-1.44-1.51-3.81-.07-5.29,1.44-1.48,3.81-1.51,5.29-.07,1.78,1.73,3.48,3.48,5.11,5.25,1.76-.73,3.6-1.39,5.52-2,1.98-.62,4.07.47,4.69,2.44s-.47,4.07-2.44,4.69c-.88.28-1.74.57-2.57.87,2.82,3.48,5.36,7.01,7.6,10.58,1.1,1.75.57,4.06-1.18,5.16-.62.39-1.31.57-1.99.57Zm498.47-4.91c-1.03,0-2.05-.42-2.78-1.24-1.38-1.54-1.26-3.9.28-5.28,12.13-10.91,17.57-19.53,17.62-19.61,1.09-1.75,3.39-2.29,5.15-1.2,1.75,1.09,2.29,3.39,1.21,5.14-.24.38-5.98,9.54-18.98,21.23-.71.64-1.61.96-2.5.96Zm-392.94-6.84c-.26,0-.53-.03-.79-.09-9.37-2.02-18.37-3.74-26.75-5.11-2.04-.33-3.42-2.26-3.09-4.3.34-2.04,2.27-3.41,4.3-3.09,8.5,1.39,17.62,3.14,27.12,5.18,2.02.43,3.3,2.43,2.87,4.44-.38,1.75-1.93,2.95-3.65,2.95Zm-54.12-8.64c-.11,0-.22,0-.33-.01-7.14-.63-13.89-.94-20.06-.94h-.03c-2.36,0-4.63.05-6.82.13-2.11.11-3.81-1.52-3.89-3.58-.08-2.07,1.52-3.81,3.58-3.89,2.28-.09,4.65-.14,7.12-.14h.04c6.39,0,13.36.33,20.71.97,2.06.18,3.58,1.99,3.4,4.05-.17,1.95-1.8,3.41-3.72,3.41Zm-89.94-18.11c-.74,0-1.49-.22-2.14-.68-6.94-4.86-14.67-9.61-22.99-14.12-1.82-.99-2.49-3.26-1.5-5.07.98-1.82,3.26-2.49,5.07-1.5,8.56,4.65,16.54,9.55,23.71,14.57,1.69,1.18,2.1,3.52.92,5.21-.73,1.04-1.89,1.6-3.07,1.6Zm-47.81-26.86c-.56,0-1.14-.13-1.68-.4-8.19-4.11-16.49-8.09-24.65-11.83-1.88-.86-2.7-3.08-1.84-4.96.86-1.88,3.07-2.71,4.96-1.84,8.24,3.77,16.62,7.79,24.89,11.95,1.85.93,2.59,3.17,1.66,5.02-.66,1.31-1.97,2.06-3.34,2.06Zm-49.98-22.79c-.47,0-.94-.09-1.4-.27-9.27-3.74-17.86-6.87-25.53-9.3-1.97-.62-3.06-2.73-2.44-4.7.62-1.97,2.73-3.06,4.7-2.44,7.85,2.49,16.62,5.68,26.07,9.5,1.92.77,2.84,2.95,2.07,4.87-.59,1.46-1.99,2.34-3.47,2.34Z"/><g><path class="cls-1" d="m16.16,44.45l-3.3-17.76c-2.97.27-5.42-.07-7.41-1.03C2.57,24.26.75,21.63.04,17.85c-.25-1.3.61-2.55,1.91-2.79,1.3-.24,2.54.61,2.79,1.91.55,2.98,1.86,3.93,2.79,4.38,1.1.54,2.61.74,4.5.6-.46-5.56,3.16-10.67,8.58-12.09-1.6-5.14-4.41-5.44-7.25-4.91-1.3.24-2.55-.62-2.79-1.91-.24-1.3.62-2.55,1.91-2.79,4.58-.85,10.31.1,12.82,8.69l16.43-3.06c-2.28,4.68-3.64,10.27-4.07,16.77-1.48-1.19-3.6-1.75-5.95-2.02l-3.42-.26c-2.93-.22-4.94,2.89-3.54,5.47l1.5,2.76c1.27,2.14,2.4,3.75,3.76,4.69.14.1.29.19.44.28h0c.08.05.16.09.25.13-.1.05-.2.11-.3.16h0c-5.29,2.9-10.09,6.76-14.11,11.37-.05-.26-.11-.51-.15-.77Z"/><path class="cls-1" d="m81.49,32.28c1.11,5.96.55,11.84-1.34,17.17l-30.7-12.41c-.6-.24-1.28-.03-1.65.5-.36.53-.31,1.25.13,1.72l22.68,24.2c-4.32,3.75-9.66,6.45-15.7,7.57-15.71,2.93-30.89-5.72-36.77-19.91,5.8-7.67,13.9-13.44,22.85-16.18l1.94-.59-.12-2.02c-.71-11.7,1.06-20.81,5.27-27.18,7.12-.16,13.92,1.97,19.54,5.82,7.01,4.81,12.19,12.3,13.87,21.31Z"/></g></g></g></svg>