<?xml version="1.0" encoding="UTF-8"?><svg id="Capa_2" xmlns="http://www.w3.org/2000/svg" viewBox="0 0 963.76 466.61"><defs><style>.cls-1{fill:#dcf343;}</style></defs><g id="Capa_1-2"><g><path class="cls-1" d="m15.73,414.48c-.19,0-.39-.01-.59-.03-2.96-.32-5.1-2.98-4.78-5.95,9.74-89.57,57.36-173.92,127.39-225.63,15.34-11.19,38.71-26.08,64.74-26.43h.42c1.44-7.03,3.49-13.82,5.71-19.97.03-.09.07-.18.11-.27,24.52-58.05,75.8-101.82,144.38-123.25,75.52-23.59,159.81-14.53,220,23.67,13.26,8.65,29.87,23.26,34.64,44.18,8.86.6,18.02,2.26,27.28,5.01,36.83,11.06,71.05,32.66,98.97,62.45,5.9,6.3,11.03,13.05,15.99,19.58,6.4,8.43,12.45,16.39,20.07,23.55,14.77,13.86,29.48,26.8,47.04,32.82,22.08,7.57,41.14,7.15,56.67-1.25,18.9-10.22,33.24-32.76,41.48-65.18.73-2.89,3.68-4.64,6.56-3.9,2.89.73,4.63,3.67,3.9,6.56-9,35.42-25.18,60.32-46.8,72.01-18.29,9.89-40.26,10.55-65.31,1.96-19.59-6.72-35.27-20.46-50.93-35.16-8.28-7.78-14.89-16.48-21.28-24.89-5.01-6.6-9.75-12.84-15.27-18.73-26.62-28.41-59.19-48.98-94.19-59.49-7.76-2.31-15.42-3.78-22.83-4.44-.02,20.3-14.38,38.72-36.55,45.01-7.36,2.15-18.11,3.79-27.29-.72-7.35-3.78-9.39-9.42-9.83-13.49-.98-9.23,5.28-18.86,11.91-24.31,12.76-10.91,29.97-16.9,49.19-17.59-5.11-17.03-20.3-29.07-29.27-34.93C509.73,9.19,428.88.58,356.31,23.25c-65.45,20.45-114.31,62-137.6,117.01-1.89,5.27-3.66,11.04-4.97,16.99,10.07,1.61,19.16,5.55,26.31,11.52,11.57,9.63,18.89,26.84,10.47,41.1-3.49,5.76-9.1,9.29-15.83,9.97-7.75.77-15.99-2.42-21.5-8.38-11.13-12.22-13.55-28.33-11.96-44.2-22.13.8-42.09,13.37-57.1,24.31-67.62,49.93-113.63,131.47-123.04,218.09-.3,2.77-2.64,4.81-5.36,4.81Zm196.25-246.58c-1.42,13.38.4,26.66,9.16,36.27,3.18,3.43,8.09,5.4,12.46,4.94,2.32-.24,5.54-1.26,7.66-4.77,5.33-9.02-.04-20.56-8.11-27.28-5.68-4.73-12.99-7.87-21.16-9.17Zm386.28-76.55c-17.34.37-32.75,5.51-44,15.13-5.04,4.14-8.57,10.65-8.11,14.9.15,1.35.71,3.33,3.94,4.99,5.98,2.93,13.89,1.62,19.46-.01,17.49-4.96,28.81-19.29,28.72-35.01Z"/><circle class="cls-1" cx="15.72" cy="450.88" r="15.72"/><g><path class="cls-1" d="m920.47,82.09l13.49-7.89c-1.09-2.34-1.54-4.43-1.34-6.34.3-2.76,1.91-5.01,4.78-6.69.99-.58,2.26-.25,2.83.74.58.99.25,2.25-.74,2.83-2.27,1.32-2.65,2.67-2.75,3.56-.11,1.06.17,2.34.83,3.84,4.39-2,9.62-.55,12.36,3.44,3.71-2.81,3.14-5.19,1.87-7.34-.58-.99-.24-2.26.74-2.83.99-.58,2.26-.24,2.83.74,2.04,3.48,2.94,8.42-3.32,12.99l7.31,12.49c-4.48-.48-9.43.04-14.85,1.6.54-1.56.37-3.45-.1-5.44l-.79-2.86c-.68-2.45-3.8-3.18-5.49-1.28l-1.81,2.03c-1.37,1.66-2.35,3.06-2.71,4.44-.04.15-.07.29-.1.44h0c-.01.08-.02.16-.03.24-.07-.07-.15-.13-.22-.19h0c-3.91-3.46-8.46-6.24-13.39-8.16.19-.12.39-.24.58-.35Z"/><path class="cls-1" d="m949.53,131.72c-4.53,2.65-9.48,3.92-14.38,3.94l1.11-28.64c.02-.56-.35-1.05-.89-1.2s-1.11.11-1.36.61l-13.06,25.56c-4.32-2.42-8.08-5.98-10.76-10.57-6.99-11.93-4.39-26.83,5.44-35.78,7.94,2.48,15.02,7.38,19.87,13.86l1.05,1.41,1.61-.69c9.32-4.01,17.26-5.24,23.68-3.67,2.22,5.75,2.48,11.91.99,17.62-1.86,7.12-6.44,13.53-13.29,17.54Z"/></g></g></g></svg>